<!DOCTYPE svg PUBLIC "-//W3C//DTD SVG 1.1//EN" "http://www.w3.org/Graphics/SVG/1.1/DTD/svg11.dtd">
<!-- Uploaded to: SVG Repo, www.svgrepo.com, Transformed by: SVG Repo Mixer Tools -->
<svg fill="#ffffff" height="800px" width="800px" version="1.1" id="Capa_1" xmlns="http://www.w3.org/2000/svg" xmlns:xlink="http://www.w3.org/1999/xlink" viewBox="0 0 488.704 488.704" xml:space="preserve">
<g id="SVGRepo_bgCarrier" stroke-width="0"/>
<g id="SVGRepo_tracerCarrier" stroke-linecap="round" stroke-linejoin="round"/>
<g id="SVGRepo_iconCarrier"> <g> <path d="M417.742,28.804c-89.1-54.2-160.2-18.7-188.3,0c-56.2,38.5-82.2,106.1-66.6,170.6l-144.6,166.5 c-23.9,28.1-22.9,70.8,4.2,96.8c12.5,12.5,50.7,35.7,93.6,3.1l114.4-95v76.3h-34.3c-11.4,0-20.8,9.4-20.8,20.8s9.4,20.8,20.8,20.8 h110.3c11.4,0,20.8-9.4,20.8-20.8s-9.4-20.8-20.8-20.8h-34.3v-110.9l15.6-13c11.4,3.1,92.7,24.6,152.9-43.7 C534.942,172.604,465.742,58.104,417.742,28.804z M395.842,61.104c70.9,47.7,55.9,129.6,31.5,169.4l-170.6-170.6 C316.942,21.904,374.442,47.804,395.842,61.104z M90.042,434.604c-11.4,9.4-29.1,8.3-39.5-2.1c-11.4-10.4-12.5-29.1-2.1-40.6 l138-157.8l65.5,64.1L90.042,434.604z M293.142,280.904l-90.2-88.2c-8.8-37.3-0.4-76.1,23.1-105.5l172.5,172.5 C378.442,275.104,349.042,291.104,293.142,280.904z"/> </g> </g>
</svg>